<?xml version="1.0" encoding="UTF-8" standalone="no"?>
<svg
   width="100"
   height="100"
   enable-background="new -5.724 -6.576 100 100"
   version="1.1"
   xml:space="preserve"
   id="svg31674"
   sodipodi:docname="tail_kitsune9.svg"
   inkscape:version="1.2.2 (b0a8486, 2022-12-01)"
   xmlns:inkscape="http://www.inkscape.org/namespaces/inkscape"
   xmlns:sodipodi="http://sodipodi.sourceforge.net/DTD/sodipodi-0.dtd"
   xmlns="http://www.w3.org/2000/svg"
   xmlns:svg="http://www.w3.org/2000/svg"><defs
   id="defs31678" /><sodipodi:namedview
   id="namedview31676"
   pagecolor="#505050"
   bordercolor="#eeeeee"
   borderopacity="1"
   inkscape:showpageshadow="0"
   inkscape:pageopacity="0"
   inkscape:pagecheckerboard="0"
   inkscape:deskcolor="#505050"
   showgrid="false"
   inkscape:zoom="2.36"
   inkscape:cx="27.966102"
   inkscape:cy="70.974576"
   inkscape:window-width="1309"
   inkscape:window-height="799"
   inkscape:window-x="611"
   inkscape:window-y="301"
   inkscape:window-maximized="0"
   inkscape:current-layer="g31672" />
 <g
   class="layer"
   display="inline"
   id="g31672"
   transform="matrix(0.75148958,0,0,0.70200256,14.5911,18.287615)">
  <title
   id="title31634">Layer 1</title>
  
  <g
   id="svg_33"
   transform="matrix(0.8321485,-0.56390699,0.55371199,0.82648462,-55.964584,13.568351)">
   <path
   d="m 57.14,28.61 c -4.73,2.95 -8.27,5.32 -11.51,10.04 -6.79,10.03 -2.37,24.5 -2.66,36.01 -0.3,14.75 -11.81,30.69 -25.97,34.53 -6.2,1.47 -12.99,2.36 -19.48,3.25 -4.43,0.88 -16.53,4.42 -18.89,2.65 -2.95,-2.06 -5.02,-8.85 -2.95,-10.92 2.95,-2.66 8.56,-2.95 11.8,-6.49 C -6.91,92.07 -3.96,84.99 -1.89,77.31 2.83,61.96 1.35,43.67 16.7,33.63 28.51,25.96 43.85,29.2 57.14,28.61 Z"
   fill="#f8f5e3"
   id="svg_34"
   stroke="#000000"
   stroke-opacity="0" />
   <path
   d="m 57.14,28.61 c -4.73,2.95 -8.27,5.32 -11.51,10.04 -6.79,10.03 -2.37,24.5 -2.66,36.01 -2.51,-0.79 -7.62,7.89 -6.83,-6.94 0.79,-14.83 -5.03,0.31 -9.7,1.7 -4.68,1.38 4.36,-27.03 -2.91,-13.61 -7.27,13.42 -9.27,7.81 -5.55,-6.31 3.72,-14.12 -7.89,3.44 -8.94,3.65 -1.05,0.21 -3.49,-2.94 -3.03,-6.22 0.46,-3.29 4.05,-7.69 5.41,-9.17 1.35,-1.49 3.38,-2.87 5.29,-4.12 11.81,-7.67 27.15,-4.43 40.44,-5.02 z"
   fill="#db4b40"
   id="svg_35"
   stroke="#000000"
   stroke-opacity="0" />
   <path
   d="m 57.14,28.61 c -4.73,2.95 -8.27,5.32 -11.51,10.04 -6.79,10.03 -2.37,24.5 -2.66,36.01 -0.3,14.75 -11.81,30.69 -25.97,34.53 -6.2,1.47 -12.99,2.36 -19.48,3.25 -4.43,0.88 -16.53,4.42 -18.89,2.65 -2.95,-2.06 -5.02,-8.85 -2.95,-10.92 2.95,-2.66 8.56,-2.95 11.8,-6.49 C -6.91,92.07 -3.96,84.99 -1.89,77.31 2.83,61.96 1.35,43.67 16.7,33.63 28.51,25.96 43.85,29.2 57.14,28.61 Z"
   fill="#f8f5e3"
   fill-opacity="0"
   id="svg_36"
   stroke="#000000" />
  </g>
  
  
  
  
  <g
   id="svg_5"
   transform="matrix(0.92555911,-0.39926545,0.37110953,0.9203397,-57.845269,14.086696)">
   <path
   d="m 89.3,36.19 c -4.73,2.95 -8.27,5.32 -11.51,10.04 -6.79,10.03 -2.37,24.5 -2.66,36.01 -0.3,14.75 -11.81,30.69 -25.97,34.53 -6.2,1.47 -12.99,2.36 -19.48,3.25 -4.43,0.88 -16.53,4.42 -18.89,2.65 -2.95,-2.06 -5.02,-8.85 -2.95,-10.92 2.95,-2.66 8.56,-2.95 11.8,-6.49 C 25.25,99.65 28.2,92.57 30.27,84.89 34.99,69.54 33.51,51.25 48.86,41.21 60.67,33.54 76.01,36.78 89.3,36.19 Z"
   fill="#f8f5e3"
   id="svg_6"
   stroke="#000000"
   stroke-opacity="0" />
   <path
   d="m 89.3,36.19 c -4.73,2.95 -8.27,5.32 -11.51,10.04 -6.79,10.03 -2.37,24.5 -2.66,36.01 -2.51,-0.79 -7.62,7.89 -6.83,-6.94 0.79,-14.83 -5.03,0.31 -9.7,1.7 -4.68,1.38 4.36,-27.03 -2.91,-13.61 -7.27,13.42 -9.27,7.81 -5.55,-6.31 3.72,-14.12 -7.89,3.44 -8.94,3.65 -1.05,0.21 -3.49,-2.94 -3.03,-6.22 0.46,-3.29 4.05,-7.69 5.41,-9.17 1.35,-1.49 3.38,-2.87 5.29,-4.12 11.81,-7.67 27.15,-4.43 40.44,-5.02 z"
   fill="#db4b40"
   id="svg_7"
   stroke="#000000"
   stroke-opacity="0" />
   <path
   d="m 89.3,36.19 c -4.73,2.95 -8.27,5.32 -11.51,10.04 -6.79,10.03 -2.37,24.5 -2.66,36.01 -0.3,14.75 -11.81,30.69 -25.97,34.53 -6.2,1.47 -12.99,2.36 -19.48,3.25 -4.43,0.88 -16.53,4.42 -18.89,2.65 -2.95,-2.06 -5.02,-8.85 -2.95,-10.92 2.95,-2.66 8.56,-2.95 11.8,-6.49 C 25.25,99.65 28.2,92.57 30.27,84.89 34.99,69.54 33.51,51.25 48.86,41.21 60.67,33.54 76.01,36.78 89.3,36.19 Z"
   fill="#f8f5e3"
   fill-opacity="0"
   id="svg_8"
   stroke="#000000" />
  </g>
  
  <g
   id="svg_13"
   transform="matrix(0.99318684,-0.10398401,0.06857964,0.99967977,-42.598822,-9.2405918)">
   <path
   d="m 111.51,50.53 c -4.73,2.95 -8.27,5.32 -11.51,10.04 -6.79,10.03 -2.37,24.5 -2.66,36.01 -0.3,14.75 -11.81,30.69 -25.97,34.53 -6.2,1.47 -12.99,2.36 -19.48,3.25 -4.43,0.88 -16.53,4.42 -18.89,2.65 -2.95,-2.06 -5.02,-8.85 -2.95,-10.92 2.95,-2.66 8.56,-2.95 11.8,-6.49 5.61,-5.61 8.56,-12.69 10.63,-20.37 4.72,-15.35 3.24,-33.64 18.59,-43.68 11.81,-7.67 27.15,-4.43 40.44,-5.02 z"
   fill="#f8f5e3"
   id="svg_14"
   stroke="#000000"
   stroke-opacity="0" />
   <path
   d="m 111.51,50.53 c -4.73,2.95 -8.27,5.32 -11.51,10.04 -6.79,10.03 -2.37,24.5 -2.66,36.01 -2.51,-0.79 -7.62,7.89 -6.83,-6.94 0.79,-14.83 -5.03,0.31 -9.7,1.7 -4.68,1.38 4.36,-27.03 -2.91,-13.61 -7.27,13.42 -9.27,7.81 -5.55,-6.31 3.72,-14.12 -7.89,3.44 -8.94,3.65 -1.05,0.21 -3.49,-2.94 -3.03,-6.22 0.46,-3.29 4.05,-7.69 5.41,-9.17 1.35,-1.49 3.38,-2.87 5.29,-4.12 11.81,-7.67 27.15,-4.43 40.44,-5.02 z"
   fill="#db4b40"
   id="svg_15"
   stroke="#000000"
   stroke-opacity="0" />
   <path
   d="m 111.51,50.53 c -4.73,2.95 -8.27,5.32 -11.51,10.04 -6.79,10.03 -2.37,24.5 -2.66,36.01 -0.3,14.75 -11.81,30.69 -25.97,34.53 -6.2,1.47 -12.99,2.36 -19.48,3.25 -4.43,0.88 -16.53,4.42 -18.89,2.65 -2.95,-2.06 -5.02,-8.85 -2.95,-10.92 2.95,-2.66 8.56,-2.95 11.8,-6.49 5.61,-5.61 8.56,-12.69 10.63,-20.37 4.72,-15.35 3.24,-33.64 18.59,-43.68 11.81,-7.67 27.15,-4.43 40.44,-5.02 z"
   fill="#f8f5e3"
   fill-opacity="0"
   id="svg_16"
   stroke="#000000" />
  </g><g
   id="svg_13-6-3"
   transform="matrix(0.98258254,0.18660758,-0.18581475,0.98243713,-6.4655709,-14.305964)">
   <path
   d="m 111.51,50.53 c -4.73,2.95 -8.27,5.32 -11.51,10.04 -6.79,10.03 -2.37,24.5 -2.66,36.01 -0.3,14.75 -11.81,30.69 -25.97,34.53 -6.2,1.47 -12.99,2.36 -19.48,3.25 -4.43,0.88 -16.53,4.42 -18.89,2.65 -2.95,-2.06 -5.02,-8.85 -2.95,-10.92 2.95,-2.66 8.56,-2.95 11.8,-6.49 5.61,-5.61 8.56,-12.69 10.63,-20.37 4.72,-15.35 3.24,-33.64 18.59,-43.68 11.81,-7.67 27.15,-4.43 40.44,-5.02 z"
   fill="#f8f5e3"
   id="svg_14-8-9"
   stroke="#000000"
   stroke-opacity="0" />
   <path
   d="m 111.51,50.53 c -4.73,2.95 -8.27,5.32 -11.51,10.04 -6.79,10.03 -2.37,24.5 -2.66,36.01 -2.51,-0.79 -7.62,7.89 -6.83,-6.94 0.79,-14.83 -5.03,0.31 -9.7,1.7 -4.68,1.38 4.36,-27.03 -2.91,-13.61 -7.27,13.42 -9.27,7.81 -5.55,-6.31 3.72,-14.12 -7.89,3.44 -8.94,3.65 -1.05,0.21 -3.49,-2.94 -3.03,-6.22 0.46,-3.29 4.05,-7.69 5.41,-9.17 1.35,-1.49 3.38,-2.87 5.29,-4.12 11.81,-7.67 27.15,-4.43 40.44,-5.02 z"
   fill="#db4b40"
   id="svg_15-4-2"
   stroke="#000000"
   stroke-opacity="0" />
   <path
   d="m 111.51,50.53 c -4.73,2.95 -8.27,5.32 -11.51,10.04 -6.79,10.03 -2.37,24.5 -2.66,36.01 -0.3,14.75 -11.81,30.69 -25.97,34.53 -6.2,1.47 -12.99,2.36 -19.48,3.25 -4.43,0.88 -16.53,4.42 -18.89,2.65 -2.95,-2.06 -5.02,-8.85 -2.95,-10.92 2.95,-2.66 8.56,-2.95 11.8,-6.49 5.61,-5.61 8.56,-12.69 10.63,-20.37 4.72,-15.35 3.24,-33.64 18.59,-43.68 11.81,-7.67 27.15,-4.43 40.44,-5.02 z"
   fill="#f8f5e3"
   fill-opacity="0"
   id="svg_16-8-3"
   stroke="#000000" />
  </g><g
   id="svg_13-6-3-3"
   transform="matrix(0.87266571,0.51817899,-0.47386466,0.86453871,37.10626,-7.4434844)">
   <path
   d="m 111.51,50.53 c -4.73,2.95 -8.27,5.32 -11.51,10.04 -6.79,10.03 -2.37,24.5 -2.66,36.01 -0.3,14.75 -11.81,30.69 -25.97,34.53 -6.2,1.47 -12.99,2.36 -19.48,3.25 -4.43,0.88 -16.53,4.42 -18.89,2.65 -2.95,-2.06 -5.02,-8.85 -2.95,-10.92 2.95,-2.66 8.56,-2.95 11.8,-6.49 5.61,-5.61 8.56,-12.69 10.63,-20.37 4.72,-15.35 3.24,-33.64 18.59,-43.68 11.81,-7.67 27.15,-4.43 40.44,-5.02 z"
   fill="#f8f5e3"
   id="svg_14-8-9-8"
   stroke="#000000"
   stroke-opacity="0" />
   <path
   d="m 111.51,50.53 c -4.73,2.95 -8.27,5.32 -11.51,10.04 -6.79,10.03 -2.37,24.5 -2.66,36.01 -2.51,-0.79 -7.62,7.89 -6.83,-6.94 0.79,-14.83 -5.03,0.31 -9.7,1.7 -4.68,1.38 4.36,-27.03 -2.91,-13.61 -7.27,13.42 -9.27,7.81 -5.55,-6.31 3.72,-14.12 -7.89,3.44 -8.94,3.65 -1.05,0.21 -3.49,-2.94 -3.03,-6.22 0.46,-3.29 4.05,-7.69 5.41,-9.17 1.35,-1.49 3.38,-2.87 5.29,-4.12 11.81,-7.67 27.15,-4.43 40.44,-5.02 z"
   fill="#db4b40"
   id="svg_15-4-2-0"
   stroke="#000000"
   stroke-opacity="0" />
   <path
   d="m 111.51,50.53 c -4.73,2.95 -8.27,5.32 -11.51,10.04 -6.79,10.03 -2.37,24.5 -2.66,36.01 -0.3,14.75 -11.81,30.69 -25.97,34.53 -6.2,1.47 -12.99,2.36 -19.48,3.25 -4.43,0.88 -16.53,4.42 -18.89,2.65 -2.95,-2.06 -5.02,-8.85 -2.95,-10.92 2.95,-2.66 8.56,-2.95 11.8,-6.49 5.61,-5.61 8.56,-12.69 10.63,-20.37 4.72,-15.35 3.24,-33.64 18.59,-43.68 11.81,-7.67 27.15,-4.43 40.44,-5.02 z"
   fill="#f8f5e3"
   fill-opacity="0"
   id="svg_16-8-3-2"
   stroke="#000000" />
  </g>
 </g>
</svg>
