<svg xmlns="http://www.w3.org/2000/svg" version="1.1" viewBox="0 0 100 100">
  <rect width="100%" height="100%" fill="black" />
  <g fill="#222222">
    <path d="m61.312 12.828c0 6.25-5.0625 11.312-11.312 11.312s-11.312-5.0625-11.312-11.312c0-6.2461 5.0625-11.312 11.312-11.312s11.312 5.0664 11.312 11.312"/>
    <path d="m61.816 29.191c-0.20312-0.20312-0.40234-0.30469-0.70703-0.50391-7.6758-4.4453-15.758-4.4453-23.031 0-0.20312 0.10156-0.40234 0.30469-0.60547 0.40234-8.082 6.8672-11.109 17.98-9.293 33.84 0.30469 2.4258 2.5234 4.1406 4.9492 3.9375 2.4258-0.30469 4.1406-2.5234 3.9375-4.9492-0.91016-8.7891-0.30469-15.656 2.1211-20.605-1.0117 19.496-0.60547 35.051-0.20312 50.504v1.918l0.003906 0.20312v0.20312c0.10156 2.7266 2.3242 4.8477 4.9492 4.8477h0.10156c2.7266-0.10156 4.8477-2.2227 4.8477-4.9492l0.003906-0.10156v-0.30469l0.40234-29.293h0.70703l0.50391 29.902h0.10156c0 2.625 2.2227 4.8477 4.8477 4.9492h0.10156c2.7266 0 4.9492-2.2227 4.9492-4.8477l0.10156-2.3242c0.30469-15.254 0.70703-30.809-0.20312-50.203 2.2227 4.9492 2.8281 11.617 1.918 20.203-0.20312 2.5234 1.5156 4.7461 3.9375 4.9492h0.50391c2.2227 0 4.1406-1.7188 4.4453-3.9375 1.7227-15.859-1.3086-26.969-9.3906-33.84z"/>
  </g>
 </svg>